<svg height="31" viewBox="0 0 56 31" width="56" xmlns="http://www.w3.org/2000/svg"><path d="m43.12 14.79c-.0778686-.6782807-.3847657-1.3097127-.87-1.79l-24-24c-1.1045695-1.2426407-3.0073593-1.3545695-4.25-.25s-1.3545695 3.00735931-.25 4.25c.0766078.09289136.1601831.17980968.25.26l21.9 21.88-21.9 21.86c-1.2509249 1.1045695-1.3695694 3.014075-.2649999 4.2649999s3.0140749 1.3695695 4.2649999.2650001c.1005737-.0821759.1942224-.17248.28-.27l24-24c.6420858-.6521127.9513992-1.5616414.84-2.47z" fill="#6b83c9" transform="matrix(0 1 -1 0 43.198451 -12.922219)"/></svg>