<svg viewBox="0 0 100 71.67" xmlns="http://www.w3.org/2000/svg"><path d="m100.25 43.33v18.34a1.67 1.67 0 0 1 -1.67 1.66h-8.48a10 10 0 0 1 -19.7 0h-37a10 10 0 0 1 -19.7 0h-11.78a1.67 1.67 0 0 1 -1.67-1.66v-53.34a1.67 1.67 0 0 1 1.67-1.66h63.33a1.67 1.67 0 0 1 1.67 1.66v10h16.66a1.65 1.65 0 0 1 1.4.77l15 23.33a1.72 1.72 0 0 1 .27.9zm-3.33 16.67v-3.33h-3.34a1.67 1.67 0 0 1 0-3.34h3.34v-9.51l-.32-.49h-24.68a1.67 1.67 0 0 1 -1.67-1.66v-15a1.67 1.67 0 0 1 1.67-1.67h12.9l-2.15-3.33h-15.75v38.33h3.48a10 10 0 0 1 19.7 0zm-2.45-20-7.55-11.73v.06h-13.34v11.67zm-7.55 21.67a6.67 6.67 0 1 0 -6.67 6.66 6.67 6.67 0 0 0 6.67-6.66zm-23.34-1.67v-3.33h-26.66a1.67 1.67 0 0 1 0-3.34h26.66v-36.66h-55a1.67 1.67 0 0 1 0-3.34h55v-3.33h-60v43.33h6.67a1.67 1.67 0 0 1 0 3.34h-6.67v3.33h10.15a10 10 0 0 1 19.7 0zm-33.33 1.67a6.67 6.67 0 1 0 -6.67 6.66 6.66 6.66 0 0 0 6.67-6.66z" transform="translate(-.25)"/><path d="m86.67 28.27 7.55 11.73h-20.89v-11.67h13.34z" fill="#6b83c9"/><circle cx="80" cy="61.67" r="1.67"/><circle cx="23.33" cy="61.67" r="1.67"/><g transform="translate(-.25)"><path d="m8.58 0h20a1.67 1.67 0 0 1 1.67 1.67 1.66 1.66 0 0 1 -1.67 1.66h-20a1.66 1.66 0 0 1 -1.66-1.66 1.66 1.66 0 0 1 1.66-1.67z"/><path d="m1.92 0a1.66 1.66 0 0 1 1.66 1.67 1.66 1.66 0 0 1 -1.66 1.66 1.66 1.66 0 0 1 -1.67-1.66 1.67 1.67 0 0 1 1.67-1.67z"/></g></svg>