<svg viewBox="0 0 100 78.85" xmlns="http://www.w3.org/2000/svg"><g transform="translate(-.25 -.25)"><path d="m100.25 21.4v32.7a7.71 7.71 0 0 1 -7.69 7.69h-19.35a19.21 19.21 0 0 1 -38.23 0h-27a7.71 7.71 0 0 1 -7.73-7.69v-46.16a7.71 7.71 0 0 1 7.69-7.69h84.62a7.71 7.71 0 0 1 7.69 7.69zm-3.85 32.7v-30.77h-92.3v30.77a3.8 3.8 0 0 0 3.84 3.84h27.06a19.21 19.21 0 0 1 38.23 0h19.33a3.8 3.8 0 0 0 3.84-3.84zm0-34.62v-3.85h-92.3v3.85zm0-7.69v-3.85a3.8 3.8 0 0 0 -3.84-3.84h-84.62a3.8 3.8 0 0 0 -3.84 3.84v3.85zm-26.92 48.08a15.39 15.39 0 1 0 -15.38 15.38 15.36 15.36 0 0 0 15.38-15.38z"/><path d="m54.1 44.48a15.39 15.39 0 1 1 -15.39 15.39 15.36 15.36 0 0 1 15.39-15.39zm8.53 11.52a1.69 1.69 0 0 0 .08-2.42 1.81 1.81 0 0 0 -1.31-.58 1.68 1.68 0 0 0 -1.19.5l-9.11 9c-1-1-2.08-2-3.12-3.08a1.76 1.76 0 0 0 -2.46-.08 1.72 1.72 0 0 0 -.08 2.43l.12.11c1.42 1.43 2.84 2.85 4.31 4.27a1.73 1.73 0 0 0 2.42 0z" fill="#6b83c9"/><path d="m62.71 53.56a1.69 1.69 0 0 1 -.08 2.44l-10.34 10.21a1.73 1.73 0 0 1 -2.42 0c-1.47-1.42-2.89-2.84-4.31-4.27l-.12-.11a1.72 1.72 0 0 1 .08-2.43 1.76 1.76 0 0 1 2.46.08c1 1 2.08 2 3.12 3.08l9.11-9a1.68 1.68 0 0 1 1.19-.56 1.81 1.81 0 0 1 1.31.56z"/><path d="m33 42.56a1.93 1.93 0 0 1 1.92 2 2 2 0 0 1 -2 1.88h-1.92a1.92 1.92 0 1 1 -.19-3.84h2.19z"/><path d="m31.06 34.87a1.92 1.92 0 1 1 0 3.84h-21.19a2 2 0 0 1 -2-1.81 1.93 1.93 0 0 1 1.84-2h21.35z"/><path d="m23.67 42.56a1.9 1.9 0 0 1 1.89 2 1.93 1.93 0 0 1 -2 1.88h-13.66a1.92 1.92 0 1 1 -.19-3.84h14z"/></g></svg>