<svg id="_лой_1" data-name="—лой_1" xmlns="http://www.w3.org/2000/svg" viewBox="0 0 29.58 40"><defs><style>.cls-1{fill:#fff;}</style></defs><title>logo-white</title><path class="cls-1" d="M17.51,23.37l-2.66-3.68-.06-.09-.06.09-2.66,3.68a3.33,3.33,0,0,0,2.66,5.28h.12a3.33,3.33,0,0,0,2.66-5.28Z"/><path class="cls-1" d="M29.42,23.1v0a15,15,0,0,0-2.62-6.45l-.05-.06-.22-.3-2-2.73L24,12.73l-.46-.64-.68-.94,0-.05L21.68,9.55l-.93-1.3L18.16,4.67,16.92,3,14.79,0,12.6,3,11.42,4.66,11.17,5,7.64,9.91,6.82,11l-.53.73L5.18,13.31l-1,1.43L2.9,16.47l0,0-.1.13a15,15,0,0,0-2,3.9,13.65,13.65,0,0,0-.49,1.85A14.48,14.48,0,0,0,0,25.25,13.85,13.85,0,0,0,.1,27s0,.07,0,.1c0,.26.08.52.12.78s.08.42.13.63.07.29.1.44a15.4,15.4,0,0,0,1.15,3,15.27,15.27,0,0,0,.91,1.52c.14.22.29.43.45.64a14.12,14.12,0,0,0,2.15,2.28c.32.28.65.55,1,.8s.62.43,1,.63.58.34.87.49A15.1,15.1,0,0,0,11,39.47a14.33,14.33,0,0,0,2.25.4c.43,0,.86.07,1.29.08h.07v0l.11,0H15a15.1,15.1,0,0,0,5.32-1.06l.53-.23.22-.1.12,0,0-.13c.43-.21.84-.43,1.24-.67a14.42,14.42,0,0,0,3.87-3.41l.11-.14A14.23,14.23,0,0,0,28,31.94a.21.21,0,0,0,0-.06c.16-.33.31-.66.45-1a13.88,13.88,0,0,0,.74-2.29,15.07,15.07,0,0,0,.32-1.88c0-.09,0-.19,0-.28s0-.47,0-.7,0-.32,0-.48A14,14,0,0,0,29.42,23.1ZM16.27,32l-.12,0-.18,0-.13,0a6.54,6.54,0,0,1-.89.07h-.32a8.93,8.93,0,0,1-1-.09,7,7,0,0,1-2.47-.92,6.65,6.65,0,0,1-2-1.81,6.75,6.75,0,0,1-.58-.94c0-.05-.05-.1-.07-.14s-.16-.35-.23-.52a2.25,2.25,0,0,1-.08-.24,6.56,6.56,0,0,1-.38-2v-.2a6.92,6.92,0,0,1,.62-2.87,7,7,0,0,1,.69-1.18l.4-.56.33-.46.58-.8.61-.85.33-.45,1-1.34.11-.16h0l2.34-3.24,2.2,3,.67.94.42.58.21.29.42.58.85,1.17.21.3.41.57.28.39a7.24,7.24,0,0,1,.67,1.14,7.36,7.36,0,0,1,.46,1.32h0a7,7,0,0,1,.18,1.58c0,.16,0,.33,0,.49a4.69,4.69,0,0,1-.09.73,7.7,7.7,0,0,1-.22.89c-.09.27-.2.54-.32.81l-.11.21a6.54,6.54,0,0,1-1.28,1.75,6.43,6.43,0,0,1-1.27,1,6.69,6.69,0,0,1-1.78.76A2.73,2.73,0,0,1,16.27,32Z"/></svg>