<svg viewBox="0 0 323.69 155" xmlns="http://www.w3.org/2000/svg"><g fill="#231f20"><path d="m164.81 31.91h-6.57v-3.16l-1.37-1.5h-41.7v-4.61c0-.66-1-1.92-1.73-1.92h-35.38v-5.87l.82-.67h45a2.55 2.55 0 0 1 2.3 2.35v2.28h70.63v-2.35a2.25 2.25 0 0 1 .65-1.66 2.42 2.42 0 0 1 1.72-.67h45.08l.74.87v5.73h-35.32a1.69 1.69 0 0 0 -1.2.52 1.94 1.94 0 0 0 -.58 1.37v4.59h-41.79l-1.3 1.47zm-5.81-.79h5v-2.69l1.73-2h41.36v-3.8a2.68 2.68 0 0 1 .82-1.93 2.48 2.48 0 0 1 1.72-.75h34.57v-4.64l-.31-.39h-44.65a1.51 1.51 0 0 0 -1.2.44 1.46 1.46 0 0 0 -.42 1.1v3.14h-72.19v-3.07a1.78 1.78 0 0 0 -1.52-1.53h-44.75l-.31.26v4.71h34.59c1.17 0 2.52 1.64 2.52 2.71v3.82h41.26l1.8 2z"/><path d="m81.16 14.67-.76-.22 1.16-4.14h33.52l.98 4.16-.76.18-.84-3.55h-32.3z"/><path d="m131.95 14.96h-8.74v-.78h8.5l5.83-4.06h48.05l4.34 4.01h9.73v.79h-10.04l-4.34-4.01h-47.5z"/><path d="m236.98 14.67-.95-3.62h-32.16l-.99 3.58-.76-.21 1.15-4.16h33.37l1.1 4.21z"/><path d="m76.66 14.89h12.26v.41h-12.26z" transform="matrix(.70710678 -.70710678 .70710678 .70710678 13.58 62.96)"/><path d="m81.24 15.31h13.45v.41h-13.45z" transform="matrix(.70710678 -.70710678 .70710678 .70710678 14.79 66.75)"/><path d="m86.84 15.31h13.45v.41h-13.45z" transform="matrix(.70710678 -.70710678 .70710678 .70710678 16.43 70.7)"/><path d="m92.43 15.31h13.45v.41h-13.45z" transform="matrix(.70710678 -.70710678 .70710678 .70710678 18.07 74.66)"/><path d="m98.03 15.31h13.45v.41h-13.45z" transform="matrix(.70710678 -.70710678 .70710678 .70710678 19.71 78.61)"/><path d="m103.67 15.44h13.07v.41h-13.07z" transform="matrix(.70710678 -.70710678 .70710678 .70710678 21.21 82.51)"/><path d="m110.01 17.24h8v.41h-8z" transform="matrix(.70710678 -.70710678 .70710678 .70710678 21.06 85.73)"/><path d="m113.81 17.99h10.1v.41h-10.1z" transform="matrix(.70710678 -.70710678 .70710678 .70710678 21.95 89.37)"/><path d="m113.71 21.65h14.14v.41h-14.14z" transform="matrix(.70710678 -.70710678 .70710678 .70710678 19.92 91.81)"/><path d="m119.8 22.84h10.78v.41h-10.78z" transform="matrix(.70710678 -.70710678 .70710678 .70710678 20.37 95.27)"/><path d="m125.39 22.82h10.83v.41h-10.83z" transform="matrix(.70710678 -.70710678 .70710678 .70710678 22.03 99.23)"/><path d="m130.98 22.82h10.83v.41h-10.83z" transform="matrix(.70710678 -.70710678 .70710678 .70710678 23.67 103.19)"/><path d="m136.57 22.82h10.83v.41h-10.83z" transform="matrix(.70710678 -.70710678 .70710678 .70710678 25.3 107.14)"/><path d="m142.17 22.82h10.83v.41h-10.83z" transform="matrix(.70710678 -.70710678 .70710678 .70710678 26.94 111.1)"/><path d="m147.76 22.82h10.83v.41h-10.83z" transform="matrix(.70710678 -.70710678 .70710678 .70710678 28.58 115.06)"/><path d="m153.36 22.82h10.83v.41h-10.83z" transform="matrix(.70710678 -.70710678 .70710678 .70710678 30.22 119.01)"/><path d="m156.73 23.76h13.38v.41h-13.38z" transform="matrix(.70710678 -.70710678 .70710678 .70710678 30.92 122.58)"/><path d="m164.55 22.84h10.78v.41h-10.78z" transform="matrix(.70710678 -.70710678 .70710678 .70710678 33.48 126.91)"/><path d="m170.13 22.82h10.83v.41h-10.83z" transform="matrix(.70710678 -.70710678 .70710678 .70710678 35.13 130.88)"/><path d="m175.73 22.82h10.83v.41h-10.83z" transform="matrix(.70710678 -.70710678 .70710678 .70710678 36.77 134.83)"/><path d="m181.34 22.86h10.71v.41h-10.71z" transform="matrix(.70710678 -.70710678 .70710678 .70710678 38.37 138.77)"/><path d="m190.73 18.53h22.96v.41h-22.96z" transform="matrix(.70710678 -.70710678 .70710678 .70710678 45.98 148.47)"/><path d="m196.33 18.53h22.96v.41h-22.96z" transform="matrix(.70710678 -.70710678 .70710678 .70710678 47.62 152.43)"/><path d="m215.44 15.33h13.51v.41h-13.51z" transform="matrix(.70710678 -.70710678 .70710678 .70710678 54.09 161.66)"/><path d="m221.03 15.33h13.51v.41h-13.51z" transform="matrix(.70710678 -.70710678 .70710678 .70710678 55.73 165.62)"/><path d="m226.92 16.05h11.49v.41h-11.49z" transform="matrix(.70710678 -.70710678 .70710678 .70710678 56.65 169.28)"/><path d="m233 17.23h8.16v.41h-8.16z" transform="matrix(.70710678 -.70710678 .70710678 .70710678 57.11 172.75)"/><path d="m238.79 17.69h6.84v.41h-6.84z" transform="matrix(.70710678 -.70710678 .70710678 .70710678 58.28 176.51)"/><path d="m186.93 22.84h10.78v.41h-10.78z" transform="matrix(.70710678 -.70710678 .70710678 .70710678 40.04 142.74)"/><path d="m196.47 16.13h5.12v.41h-5.12z" transform="matrix(.70710678 -.70710678 .70710678 .70710678 46.75 145.52)"/><path d="m202.79 11.22h2.28v.41h-2.28z" transform="matrix(.70710678 -.70710678 .70710678 .70710678 51.65 147.55)"/><path d="m204.83 25.54h3.13v.41h-3.13z" transform="matrix(.70710678 -.70710678 .70710678 .70710678 42.24 153.48)"/><path d="m209.77 15.36h13.59v.41h-13.59z" transform="matrix(.70710678 -.70710678 .70710678 .70710678 52.42 157.7)"/><path d="m160.87 29.83h4.17v.41h-4.17z" transform="matrix(.70710678 -.70710678 .70710678 .70710678 26.49 124.02)"/><path d="m123.88 140.9h-45.09l-.71-.91v-5.73h35.33a1.88 1.88 0 0 0 1.77-1.89v-4.59h41.82l1.26-1.47v-3.19h6.57v3.16l1.41 1.5h41.7v4.61c0 .66 1 1.92 1.73 1.92h35.33v5.87l-.81.67h-45a2.56 2.56 0 0 1 -2.31-2.35v-2.28h-70.63v2.35a2.28 2.28 0 0 1 -.65 1.66 2.44 2.44 0 0 1 -1.72.67zm-44.71-.79h44.7a1.66 1.66 0 0 0 1.17-.44 1.46 1.46 0 0 0 .42-1.1v-3.14h72.2v3.07a1.77 1.77 0 0 0 1.52 1.57h44.74l.31-.26v-4.71h-34.59c-1.17 0-2.52-1.64-2.52-2.71v-3.82h-41.26l-1.84-2v-2.67h-5v2.69l-1.68 2h-41.34v3.8a2.71 2.71 0 0 1 -.81 1.93 2.52 2.52 0 0 1 -1.73.75h-34.6v4.67z"/><path d="m241.52 144.72h-33.52l-.98-4.16.77-.18.83 3.55h32.3l1.01-3.57.76.22z"/><path d="m185.55 144.91h-48.06l-4.33-4.01h-9.73v-.79h10.04l4.33 4.01h47.5l5.82-4.05h8.76v.78h-8.51z"/><path d="m119.81 144.77h-33.37l-1.1-4.21.76-.2.95 3.62h32.17l.99-3.58.76.21z"/><path d="m234.16 139.73h12.26v.41h-12.26z" transform="matrix(.70710678 -.70710678 .70710678 .70710678 -28.57 210.9)"/><path d="m228.39 139.31h13.45v.41h-13.45z" transform="matrix(.70710678 -.70710678 .70710678 .70710678 -29.79 207.12)"/><path d="m222.8 139.31h13.45v.41h-13.45z" transform="matrix(.70710678 -.70710678 .70710678 .70710678 -31.43 203.16)"/><path d="m217.2 139.31h13.45v.41h-13.45z" transform="matrix(.70710678 -.70710678 .70710678 .70710678 -33.06 199.2)"/><path d="m211.61 139.31h13.45v.41h-13.45z" transform="matrix(.70710678 -.70710678 .70710678 .70710678 -34.7 195.25)"/><path d="m206.34 139.18h13.07v.41h-13.07z" transform="matrix(.70710678 -.70710678 .70710678 .70710678 -36.21 191.35)"/><path d="m205.08 137.38h7.99v.41h-7.99z" transform="matrix(.70710678 -.70710678 .70710678 .70710678 -36.05 188.14)"/><path d="m199.18 136.64h10.1v.41h-10.1z" transform="matrix(.70710678 -.70710678 .70710678 .70710678 -36.94 184.49)"/><path d="m195.23 132.97h14.14v.41h-14.14z" transform="matrix(.70710678 -.70710678 .70710678 .70710678 -34.92 182.05)"/><path d="m192.51 131.78h10.78v.41h-10.78z" transform="matrix(.70710678 -.70710678 .70710678 .70710678 -35.37 178.59)"/><path d="m186.87 131.8h10.83v.41h-10.83z" transform="matrix(.70710678 -.70710678 .70710678 .70710678 -37.02 174.63)"/><path d="m181.28 131.8h10.83v.41h-10.83z" transform="matrix(.70710678 -.70710678 .70710678 .70710678 -38.66 170.67)"/><path d="m175.68 131.8h10.83v.41h-10.83z" transform="matrix(.70710678 -.70710678 .70710678 .70710678 -40.3 166.72)"/><path d="m170.09 131.8h10.83v.41h-10.83z" transform="matrix(.70710678 -.70710678 .70710678 .70710678 -41.94 162.76)"/><path d="m164.49 131.8h10.83v.41h-10.83z" transform="matrix(.70710678 -.70710678 .70710678 .70710678 -43.58 158.81)"/><path d="m158.9 131.8h10.83v.41h-10.83z" transform="matrix(.70710678 -.70710678 .70710678 .70710678 -45.21 154.85)"/><path d="m152.97 130.86h13.38v.41h-13.38z" transform="matrix(.70710678 -.70710678 .70710678 .70710678 -45.91 151.28)"/><path d="m147.76 131.78h10.78v.41h-10.78z" transform="matrix(.70710678 -.70710678 .70710678 .70710678 -48.47 146.95)"/><path d="m142.12 131.8h10.83v.41h-10.83z" transform="matrix(.70710678 -.70710678 .70710678 .70710678 -50.13 142.99)"/><path d="m136.53 131.8h10.83v.41h-10.83z" transform="matrix(.70710678 -.70710678 .70710678 .70710678 -51.77 139.03)"/><path d="m131.03 131.76h10.71v.41h-10.71z" transform="matrix(.70710678 -.70710678 .70710678 .70710678 -53.37 135.09)"/><path d="m109.39 136.09h22.96v.41h-22.96z" transform="matrix(.70710678 -.70710678 .70710678 .70710678 -60.97 125.39)"/><path d="m103.8 136.09h22.96v.41h-22.96z" transform="matrix(.70710678 -.70710678 .70710678 .70710678 -62.61 121.43)"/><path d="m94.13 139.29h13.51v.41h-13.51z" transform="matrix(.70710678 -.70710678 .70710678 .70710678 -69.08 112.2)"/><path d="m88.54 139.29h13.51v.41h-13.51z" transform="matrix(.70710678 -.70710678 .70710678 .70710678 -70.72 108.24)"/><path d="m84.68 138.57h11.49v.41h-11.49z" transform="matrix(.70710678 -.70710678 .70710678 .70710678 -71.65 104.58)"/><path d="m81.93 137.39h8.16v.41h-8.16z" transform="matrix(.70710678 -.70710678 .70710678 .70710678 -72.11 101.12)"/><path d="m77.46 136.93h6.84v.41h-6.84z" transform="matrix(.70710678 -.70710678 .70710678 .70710678 -73.28 97.36)"/><path d="m125.37 131.79h10.78v.41h-10.78z" transform="matrix(.70710678 -.70710678 .70710678 .70710678 -55.03 131.12)"/><path d="m122.39 140.66-.29-.29 3.62-3.63.29.29z"/><path d="m118.5 144.56-.3-.3 1.62-1.61.29.29z"/><path d="m115.73 130.54-.28-.29 2.2-2.22.29.29z"/><path d="m99.72 139.26h13.59v.41h-13.59z" transform="matrix(.70710678 -.70710678 .70710678 .70710678 -67.42 116.16)"/><path d="m158.05 124.8h4.17v.41h-4.17z" transform="matrix(.70710678 -.70710678 .70710678 .70710678 -41.49 149.84)"/><path d="m158.24 31.52h.79v92.09h-.79z"/><path d="m164.02 31.52h.79v92.09h-.79z"/><path d="m109.06 23.54a3.15 3.15 0 1 1 3.14 3.15 3.14 3.14 0 0 1 -3.14-3.15" fill-rule="evenodd"/><path d="m112.21 27.54a4 4 0 1 1 4-4 4 4 0 0 1 -4 4zm0-6.29a2.3 2.3 0 1 0 2.29 2.29 2.3 2.3 0 0 0 -2.29-2.29z"/><path d="m109.06 131.33a3.15 3.15 0 1 1 3.14 3.15 3.14 3.14 0 0 1 -3.14-3.15" fill-rule="evenodd"/><path d="m112.21 135.33a4 4 0 1 1 4-4 4 4 0 0 1 -4 4zm0-6.29a2.3 2.3 0 1 0 2.29 2.29 2.3 2.3 0 0 0 -2.29-2.33z"/><path d="m108.21 23.39h1.71v107.94h-1.71z"/><path d="m114.5 23.39h1.71v107.94h-1.71z"/><path d="m109.24 26.2h-37.24v-12.13h6v6h31.28zm-36.42-.86h35.56v-4.47l-31.28.05v-6h-4.28z"/><path d="m73.25 23.08h.45v3.07h-.45z" transform="matrix(.70735356 -.70685991 .70685991 .70735356 4.11 59.15)"/><path d="m76.42 15.47h.45v11.98h-.45z" transform="matrix(.70710678 -.70710678 .70710678 .70710678 7.27 60.48)"/><path d="m84.37 19.38h.45v7.41h-.45z" transform="matrix(.70710678 -.70710678 .70710678 .70710678 8.46 66.57)"/><path d="m90.69 19.38h.45v7.41h-.45z" transform="matrix(.70710678 -.70710678 .70710678 .70710678 10.31 71.04)"/><path d="m97.01 19.38h.45v7.4h-.45z" transform="matrix(.70723018 -.70698336 .70698336 .70723018 12.15 75.5)"/><path d="m103.33 19.38h.45v7.4h-.45z" transform="matrix(.70723018 -.70698336 .70698336 .70723018 14 79.97)"/><path d="m76.56 14.23h.45v2.1h-.45z" transform="matrix(.70685991 -.70735356 .70735356 .70685991 11.71 58.8)"/><path d="m78 140.79h-6v-12.12h37.28v6.21h-31.29zm-5.13-.85h4.23v-6h31.28v-4.49h-35.56z"/><path d="m72.83 138.78h.45v1.87h-.45z" transform="matrix(.70648944 -.70772358 .70772358 .70648944 -77.44 92.72)"/><path d="m74.7 131.68h.45v7.16h-.45z" transform="matrix(.70723018 -.70698336 .70698336 .70723018 -73.69 92.58)"/><path d="m77.46 128.02h.45v7.37h-.45z" transform="matrix(.70698336 -.70723018 .70723018 .70698336 -70.38 93.54)"/><path d="m83.78 128.02h.45v7.37h-.45z" transform="matrix(.70673644 -.70747692 .70747692 .70673644 -68.54 98.05)"/><path d="m90.11 128.02h.45v7.36h-.45z" transform="matrix(.70710678 -.70710678 .70710678 .70710678 -66.67 102.45)"/><path d="m96.43 128.02h.45v7.37h-.45z" transform="matrix(.70698336 -.70723018 .70723018 .70698336 -64.83 106.96)"/><path d="m102.75 128.02h.45v7.37h-.45z" transform="matrix(.70673644 -.70747692 .70747692 .70673644 -62.98 111.47)"/><path d="m71.96 25.87h.86v103.33h-.86z"/><path d="m108.38 25.87h.86v103.33h-.86z"/><path d="m34.44 28.77h-8.31v-8.32c0-1 1.11-1.82 2.1-2l2.6-.21 14.77-3.9a27.05 27.05 0 0 0 10.89-5.54c7.72-7.16 13-8.57 19.6-8.59l52-.21 2 1.31v2.26l-1.71.83v6.34h-55.9v9.58l-.4.06-37.64 5.51zm-7.38-.93h6.45v-2.75l.4-.06 37.64-5.51v-9.71h55.93v-6l1.72-.81v-1.18l-1.39-.89-51.72.21c-6.49 0-11.43 1.35-19 8.34a27.55 27.55 0 0 1 -11.3 5.8l-14.79 3.91-2.65.23c-.66.09-1.27.65-1.27 1z"/><path d="m32.57 18.76-.12-.92 15.67-2.08a23.11 23.11 0 0 0 13.32-6.23c4.56-3.74 9.56-5.45 16.23-5.53l40.61-.32 4.51-3.52.57.74-4.75 3.71-40.93.32c-6.48.08-11.3 1.72-15.62 5.3a24.09 24.09 0 0 1 -13.83 6.46z"/><path d="m122.66 14.33h-49.08l-1.62-3.82.86-.37 1.38 3.26h47.89l1.64-3.28.83.41z"/><path d="m128.09 155h-.09l-51.86-.22c-6.57 0-11.88-1.42-19.59-8.58a27 27 0 0 0 -10.9-5.58l-14.85-3.91-2.49-.2c-1-.14-2.13-1-2.13-2v-8.32h8.31v2.88l38 5.57v9.58h55.94v6.34l1.71.83v2.26zm-101-27.84v7.39c0 .37.61.94 1.3 1l2.54.21 14.94 3.92a27.56 27.56 0 0 1 11.29 5.8c7.53 7 12.47 8.32 19 8.33l51.72.22 1.39-.89v-1.14l-1.72-.83v-6h-56v-9.71l-38-5.57v-2.75z"/><path d="m122.79 154.83-4.51-3.51-40.61-.32c-6.71-.09-11.71-1.79-16.21-5.52a23.26 23.26 0 0 0 -13.33-6.25l-15.68-2.07.12-.93 15.67 2.08a24.13 24.13 0 0 1 13.84 6.47c4.3 3.57 9.12 5.21 15.6 5.29l40.93.32 4.75 3.71z"/><path d="m123.73 144.88-1.64-3.28h-47.89l-1.38 3.25-.86-.36 1.62-3.82h49.08l1.9 3.8z"/><path d="m26.13 28.38h.93v98.21h-.93z"/><path d="m33.51 28.38h.93v98.21h-.93z"/><path d="m125.99-.21h.43v5.12h-.43z" transform="matrix(.70710678 -.70710678 .70710678 .70710678 35.3 89.93)"/><path d="m123.99.91h.43v10.47h-.43z" transform="matrix(.70735356 -.70685991 .70685991 .70735356 32 89.59)"/><path d="m119.83 2.75h.43v10.09h-.43z" transform="matrix(.70723018 -.70698336 .70698336 .70723018 29.63 87.15)"/><path d="m115.23 2.17h.43v13.67h-.43z" transform="matrix(.70698336 -.70723018 .70723018 .70698336 27.46 84.28)"/><path d="m109.56 2.36h.43v13.53h-.43z" transform="matrix(.70710678 -.70710678 .70710678 .70710678 25.7 80.29)"/><path d="m103.75 2.36h.43v13.54h-.43z" transform="matrix(.70698336 -.70723018 .70723018 .70698336 24 76.2)"/><path d="m97.95 2.36h.43v13.53h-.43z" transform="matrix(.70710678 -.70710678 .70710678 .70710678 22.3 72.09)"/><path d="m92.14 2.36h.43v13.53h-.43z" transform="matrix(.70710678 -.70710678 .70710678 .70710678 20.6 67.98)"/><path d="m86.34 2.36h.43v13.54h-.43z" transform="matrix(.70698336 -.70723018 .70723018 .70698336 18.9 63.89)"/><path d="m80.64 2.62h.43v13.23h-.43z" transform="matrix(.70710678 -.70710678 .70710678 .70710678 17.15 59.88)"/><path d="m75.16 3.4h.43v12.32h-.43z" transform="matrix(.70710678 -.70710678 .70710678 .70710678 15.31 56.09)"/><path d="m69.13 5.58h.43v7.51h-.43z" transform="matrix(.70698336 -.70723018 .70723018 .70698336 13.72 51.78)"/><path d="m67.33 7.01h.43v12.66h-.43z" transform="matrix(.70710678 -.70710678 .70710678 .70710678 10.35 51.66)"/><path d="m64.11 9.6h.43v12.66h-.43z" transform="matrix(.70710678 -.70710678 .70710678 .70710678 7.58 50.15)"/><path d="m59.83 12.21h.43v10.47h-.43z" transform="matrix(.70710678 -.70710678 .70710678 .70710678 5.25 47.57)"/><path d="m55.21 14.08h.43v9.1h-.43z" transform="matrix(.70710678 -.70710678 .70710678 .70710678 3.06 44.65)"/><path d="m50.25 15.03h.43v8.89h-.43z" transform="matrix(.70710678 -.70710678 .70710678 .70710678 1.01 41.39)"/><path d="m45.15 15.7h.43v8.96h-.43z" transform="matrix(.70723018 -.70698336 .70698336 .70723018 -.99 37.98)"/><path d="m40.07 16.35h.43v9.1h-.43z" transform="matrix(.70710678 -.70710678 .70710678 .70710678 -2.98 34.61)"/><path d="m35.01 17.1h.43v9.1h-.43z" transform="matrix(.70710678 -.70710678 .70710678 .70710678 -4.99 31.25)"/><path d="m30.41 18.04h.43v9.61h-.43z" transform="matrix(.70710678 -.70710678 .70710678 .70710678 -7.19 28.35)"/><path d="m28.22 23.9h.43v5.13h-.43z" transform="matrix(.70710678 -.70710678 .70710678 .70710678 -10.39 27.86)"/><path d="m127.08 144.46h.43v1.79h-.43z" transform="matrix(.70710678 -.70710678 .70710678 .70710678 -65.5 132.59)"/><path d="m123.22 138.58h.43v17.45h-.43z" transform="matrix(.70710678 -.70710678 .70710678 .70710678 -68.01 130.42)"/><path d="m117.94 138.36h.43v18.95h-.43z" transform="matrix(.70710678 -.70710678 .70710678 .70710678 -69.93 126.84)"/><path d="m110.26 139.13h.43v13.65h-.43z" transform="matrix(.70710678 -.70710678 .70710678 .70710678 -70.85 120.86)"/><path d="m104.46 139.13h.43v13.65h-.43z" transform="matrix(.70723018 -.70698336 .70698336 .70723018 -72.54 116.72)"/><path d="m98.61 139.15h.43v13.51h-.43z" transform="matrix(.70723018 -.70698336 .70698336 .70723018 -74.23 112.59)"/><path d="m92.78 139.16h.43v13.45h-.43z" transform="matrix(.70723018 -.70698336 .70698336 .70723018 -75.92 108.46)"/><path d="m86.99 139.16h.43v13.48h-.43z" transform="matrix(.70710678 -.70710678 .70710678 .70710678 -77.63 104.39)"/><path d="m65.27 129.14h.43v24.9h-.43z" transform="matrix(.70710678 -.70710678 .70710678 .70710678 -80.94 87.77)"/><path d="m57.78 128.64h.43v22.54h-.43z" transform="matrix(.70710678 -.70710678 .70710678 .70710678 -81.95 81.99)"/><path d="m47.26 129.23h.43v11.94h-.43z" transform="matrix(.70710678 -.70710678 .70710678 .70710678 -81.69 73.17)"/><path d="m71.87 136.68-1.65-1.66.3-.3 1.65 1.65z"/><path d="m81.14 139.16h.43v13.39h-.43z" transform="matrix(.70735356 -.70685991 .70685991 .70735356 -79.29 100.18)"/><path d="m67.65 132.17h.43v11.99h-.43z" transform="matrix(.70735356 -.70685991 .70685991 .70735356 -77.8 88.4)"/><path d="m76.42 141.86h.43v10.17h-.43z" transform="matrix(.70735356 -.70685991 .70685991 .70735356 -81.44 97.18)"/><path d="m32.52 124.5h.43v15.12h-.43z" transform="matrix(.70710678 -.70710678 .70710678 .70710678 -83.79 61.82)"/><path d="m28.69 130.73h.43v6.6h-.43z" transform="matrix(.70735356 -.70685991 .70685991 .70735356 -86.29 59.66)"/><path d="m33.35 126.53h.43v1.11h-.43z" transform="matrix(.70710678 -.70710678 .70710678 .70710678 -80.03 60.96)"/><path d="m40.37 128.11h.43v12h-.43z" transform="matrix(.70735356 -.70685991 .70685991 .70735356 -82.92 67.94)"/><path d="m62.81 31.34-4.1-2.34h-4.19v2.27l-4.08-2.28h-4.07v2.39l-4.16-2.39h-4.12v2.34l-4.26-2.43v-3.58h.19l38.53-5.78v9.46h-1.45v2.33l-4.1-2.33h-4.19zm-25.17-2.85h4.69.05l3.54 2v-2h4.63.05l3.47 1.94v-2h4.76.06l3.47 2v-2h4.75l3.54 2v-2h1.45v-8.43l-37.82 5.71v2.93l3.36 1.87z"/><path d="m72.55 135.26h-.25l-38.47-5.56v-3.8l.12-.06 4.14-2.31v2.33h4.12l4.16-2.39v2.39h4.07l4.08-2.28v2.27h4.19l4.1-2.38v2.39h4.19l4.11-2.33v2.32h1.45zm-38.27-6 37.82 5.47v-8.48h-1.45v-2l-3.54 2h-4.75v-2.06l-3.53 2.05h-4.76v-2l-3.52 2h-4.63v-2.06l-3.59 2.06h-4.69v-2l-3.36 1.87z"/><path d="m34.22 27.92-.31-.3 2.67-2.66.3.3z"/><path d="m42.48 26.13h9.26v.43h-9.26z" transform="matrix(.70710678 -.70710678 .70710678 .70710678 -4.83 41.02)"/><path d="m49.15 25.16h9.44v.43h-9.44z" transform="matrix(.70710678 -.70710678 .70710678 .70710678 -2.16 45.53)"/><path d="m54.75 24.66h10.88v.43h-10.88z" transform="matrix(.70710678 -.70710678 .70710678 .70710678 .04 49.84)"/><path d="m58.85 24.75h14.09v.43h-14.09z" transform="matrix(.70710678 -.70710678 .70710678 .70710678 1.64 53.91)"/><path d="m66.63 26.47h6.7v.43h-6.7z" transform="matrix(.70710678 -.70710678 .70710678 .70710678 1.63 57.3)"/><path d="m37.01 29.92h1v.43h-1z" transform="matrix(.71006249 -.70413866 .70413866 .71006249 -10.34 35.15)"/><path d="m37.98 26.19h6.54v.43h-6.54z" transform="matrix(.70710678 -.70710678 .70710678 .70710678 -6.59 36.9)"/><path d="m33.28 125.7h5.36v.43h-5.36z" transform="matrix(.70710678 -.70710678 .70710678 .70710678 -78.5 62.31)"/><path d="m41.81 128.16h6.6v.43h-6.6z" transform="matrix(.70710678 -.70710678 .70710678 .70710678 -77.56 69.5)"/><path d="m46.51 128.01h9.09v.43h-9.09z" transform="matrix(.70710678 -.70710678 .70710678 .70710678 -75.71 73.66)"/><path d="m51.55 128.7h9.26v.43h-9.26z" transform="matrix(.70710678 -.70710678 .70710678 .70710678 -74.7 77.48)"/><path d="m56.55 129.27h9.71v.43h-9.71z" transform="matrix(.70710678 -.70710678 .70710678 .70710678 -73.57 81.35)"/><path d="m61.44 129.52h11.04v.43h-11.04z" transform="matrix(.70710678 -.70710678 .70710678 .70710678 -72.13 85.35)"/><path d="m36.86 127.81h5.58v.43h-5.58z" transform="matrix(.70710678 -.70710678 .70710678 .70710678 -78.91 65.54)"/><path d="m72.1 28.67h.45v100.52h-.45z"/><path d="m67.21 132.04h6.02v.43h-6.02z" transform="matrix(.70710678 -.70710678 .70710678 .70710678 -72.95 88.39)"/><path d="m70.65 30.85h.45v93.03h-.45z"/><path d="m66.82 28.76h.45v97.28h-.45z"/><path d="m62.36 30.89h.45v92.95h-.45z"/><path d="m58.55 28.76h.45v97.28h-.45z"/><path d="m54.07 30.81h.45v93.11h-.45z"/><path d="m50.25 28.76h.45v97.28h-.45z"/><path d="m45.92 30.81h.45v93.03h-.45z"/><path d="m42.02 28.76h.45v97.28h-.45z"/><path d="m37.64 30.81h.45v93.03h-.45z"/><path d="m33.83 28.76h.45v97.28h-.45z"/><path d="m207.71 131.46a3.15 3.15 0 1 1 3.15 3.14 3.15 3.15 0 0 1 -3.15-3.14" fill-rule="evenodd"/><path d="m210.86 135.46a4 4 0 1 1 4-4 4 4 0 0 1 -4 4zm0-6.3a2.3 2.3 0 1 0 2.29 2.3 2.3 2.3 0 0 0 -2.29-2.3z"/><path d="m207.71 23.67a3.15 3.15 0 1 1 3.15 3.14 3.15 3.15 0 0 1 -3.15-3.14" fill-rule="evenodd"/><path d="m210.86 27.66a4 4 0 1 1 4-4 4 4 0 0 1 -4 4zm0-6.29a2.3 2.3 0 1 0 2.29 2.3 2.3 2.3 0 0 0 -2.29-2.3z"/><path d="m213.15 23.67h1.71v107.94h-1.71z"/><path d="m206.86 23.67h1.71v107.94h-1.71z"/><path d="m251.1 140.93h-6v-6l-31.29.05v-6.18h37.29zm-5.14-.86h4.28v-10.42h-35.56v4.48h31.28z"/><path d="m249.36 128.85h.45v3.07h-.45z" transform="matrix(.70735356 -.70685991 .70685991 .70735356 -19.12 214.6)"/><path d="m246.19 127.54h.45v11.98h-.45z" transform="matrix(.70710678 -.70710678 .70710678 .70710678 -22.25 213.35)"/><path d="m238.25 128.21h.45v7.41h-.45z" transform="matrix(.70710678 -.70710678 .70710678 .70710678 -23.43 207.27)"/><path d="m231.93 128.21h.45v7.41h-.45z" transform="matrix(.70710678 -.70710678 .70710678 .70710678 -25.28 202.79)"/><path d="m225.61 128.21h.45v7.4h-.45z" transform="matrix(.70723018 -.70698336 .70698336 .70723018 -27.14 198.29)"/><path d="m219.28 128.21h.45v7.4h-.45z" transform="matrix(.70747692 -.70673644 .70673644 .70747692 -29.02 193.7)"/><path d="m246.06 138.67h.45v2.1h-.45z" transform="matrix(.70772358 -.70648944 .70648944 .70772358 -26.73 214.84)"/><path d="m213.82 26.34v-6.21h31.29v-6h6v12.2zm.86-5.35v4.49h35.56v-10.42h-4.24v6z"/><path d="m249.79 14.35h.45v1.87h-.45z" transform="matrix(.70648944 -.70772358 .70772358 .70648944 62.58 181.44)"/><path d="m247.92 16.16h.45v7.16h-.45z" transform="matrix(.70723018 -.70698336 .70698336 .70723018 58.7 181.22)"/><path d="m245.15 19.61h.45v7.37h-.45z" transform="matrix(.70673644 -.70747692 .70747692 .70673644 55.47 180.42)"/><path d="m238.83 19.61h.45v7.37h-.45z" transform="matrix(.70673644 -.70747692 .70747692 .70673644 53.62 175.95)"/><path d="m232.51 19.61h.45v7.37h-.45z" transform="matrix(.70698336 -.70723018 .70723018 .70698336 51.73 171.44)"/><path d="m226.19 19.61h.45v7.37h-.45z" transform="matrix(.70673644 -.70747692 .70747692 .70673644 49.91 167.01)"/><path d="m219.87 19.61h.45v7.37h-.45z" transform="matrix(.70673644 -.70747692 .70747692 .70673644 48.06 162.53)"/><path d="m250.25 25.8h.86v103.32h-.86z"/><path d="m213.83 25.8h.86v103.32h-.86z"/><path d="m195 155-2-1.31v-2.26l1.71-.83v-6.34h55.93v-9.58l.4-.06 37.64-5.51v-2.88h8.32v8.32c0 1-1.11 1.82-2.11 2l-2.6.21-14.77 3.9a27.19 27.19 0 0 0 -10.89 5.58c-7.71 7.16-13 8.57-19.59 8.58zm-1.11-1.82 1.38.89 51.72-.22c6.49 0 11.44-1.34 19-8.33a27.43 27.43 0 0 1 11.29-5.8l14.85-3.91 2.65-.23c.66-.09 1.27-.66 1.27-1v-7.39h-6.45v2.75l-.39.06-37.64 5.51v9.71h-55.99v6l-1.71.83z"/><path d="m200.28 154.84-.58-.74 4.76-3.71 40.93-.32c6.48-.08 11.3-1.72 15.62-5.3a24.1 24.1 0 0 1 13.82-6.46l15.66-2.07.13.92-15.62 2.08a23.17 23.17 0 0 0 -13.33 6.23c-4.51 3.74-9.51 5.45-16.22 5.53l-40.62.32z"/><path d="m199.34 144.88-.84-.41 1.9-3.8h49.08l1.62 3.82-.85.36-1.38-3.25h-47.89z"/><path d="m296.94 28.77h-8.32v-2.88l-38-5.57v-9.58h-55.97v-6.34l-1.71-.83v-2.26l2.06-1.31h.14l51.86.22c6.56 0 11.87 1.42 19.59 8.57a27 27 0 0 0 10.89 5.59l14.85 3.91 2.5.2c1 .14 2.13 1 2.13 2zm-7.39-.93h6.45v-7.38c0-.38-.61-.95-1.3-1.05l-2.54-.21-14.94-3.92a27.56 27.56 0 0 1 -11.29-5.8c-7.52-7-12.47-8.32-19-8.33l-51.68-.22-1.38.89v1.18l1.71.83v6h55.94v9.71l38 5.57z"/><path d="m290.49 18.76-15.66-2.08a24.06 24.06 0 0 1 -13.83-6.46c-4.3-3.57-9.12-5.21-15.6-5.29l-40.93-.32-4.77-3.71.58-.74 4.5 3.52 40.62.32c6.71.08 11.71 1.79 16.2 5.52a23.24 23.24 0 0 0 13.34 6.24l15.68 2.08z"/><path d="m249.48 14.33h-49.08l-1.9-3.8.84-.41 1.64 3.28h47.89l1.38-3.26.85.37z"/><path d="m296 28.41h.93v98.21h-.93z"/><path d="m288.62 28.41h.93v98.21h-.93z"/><path d="m196.64 150.09h.43v5.12h-.43z" transform="matrix(.70710678 -.70710678 .70710678 .70710678 -50.28 183.91)"/><path d="m198.65 143.62h.43v10.47h-.43z" transform="matrix(.70735356 -.70685991 .70685991 .70735356 -47.02 184.13)"/><path d="m202.81 142.16h.43v10.09h-.43z" transform="matrix(.70723018 -.70698336 .70698336 .70723018 -44.63 186.63)"/><path d="m207.4 139.16h.43v13.67h-.43z" transform="matrix(.70723018 -.70698336 .70698336 .70723018 -42.43 189.54)"/><path d="m213.08 139.1h.43v13.54h-.43z" transform="matrix(.70698336 -.70723018 .70723018 .70698336 -40.67 193.58)"/><path d="m218.88 139.1h.43v13.54h-.43z" transform="matrix(.70698336 -.70723018 .70723018 .70698336 -38.97 197.68)"/><path d="m224.69 139.1h.43v13.53h-.43z" transform="matrix(.70710678 -.70710678 .70710678 .70710678 -37.27 201.75)"/><path d="m230.49 139.1h.43v13.53h-.43z" transform="matrix(.70710678 -.70710678 .70710678 .70710678 -35.57 205.86)"/><path d="m236.3 139.1h.43v13.54h-.43z" transform="matrix(.70698336 -.70723018 .70723018 .70698336 -33.86 210)"/><path d="m241.99 139.15h.43v13.23h-.43z" transform="matrix(.70710678 -.70710678 .70710678 .70710678 -32.12 213.98)"/><path d="m247.47 139.28h.43v12.32h-.43z" transform="matrix(.70710678 -.70710678 .70710678 .70710678 -30.29 217.76)"/><path d="m253.5 141.91h.43v7.51h-.43z" transform="matrix(.70723018 -.70698336 .70698336 .70723018 -28.7 222)"/><path d="m255.31 135.34h.43v12.66h-.43z" transform="matrix(.70698336 -.70723018 .70723018 .70698336 -25.31 222.23)"/><path d="m258.53 132.75h.43v12.66h-.43z" transform="matrix(.70710678 -.70710678 .70710678 .70710678 -22.56 223.69)"/><path d="m262.81 132.31h.43v10.47h-.43z" transform="matrix(.70710678 -.70710678 .70710678 .70710678 -20.23 226.27)"/><path d="m267.42 131.82h.43v9.1h-.43z" transform="matrix(.70710678 -.70710678 .70710678 .70710678 -18.04 229.19)"/><path d="m272.38 131.07h.43v8.89h-.43z" transform="matrix(.70710678 -.70710678 .70710678 .70710678 -15.99 232.45)"/><path d="m277.49 130.34h.43v8.96h-.43z" transform="matrix(.70710678 -.70710678 .70710678 .70710678 -13.99 235.85)"/><path d="m282.56 129.54h.43v9.1h-.43z" transform="matrix(.70710678 -.70710678 .70710678 .70710678 -11.99 239.23)"/><path d="m287.62 128.79h.43v9.1h-.43z" transform="matrix(.70710678 -.70710678 .70710678 .70710678 -9.98 242.59)"/><path d="m292.23 127.34h.43v9.61h-.43z" transform="matrix(.70698336 -.70723018 .70723018 .70698336 -7.78 245.52)"/><path d="m294.42 125.97h.43v5.13h-.43z" transform="matrix(.70735356 -.70685991 .70685991 .70735356 -4.63 245.88)"/><path d="m195.55 8.74h.43v1.79h-.43z" transform="matrix(.70673644 -.70747692 .70747692 .70673644 50.59 141.32)"/><path d="m199.42-1.02h.43v17.45h-.43z" transform="matrix(.70698336 -.70723018 .70723018 .70698336 53.04 143.43)"/><path d="m204.69-2.3h.43v18.94h-.43z" transform="matrix(.70710678 -.70710678 .70710678 .70710678 54.95 146.99)"/><path d="m212.37 2.22h.43v13.65h-.43z" transform="matrix(.70710678 -.70710678 .70710678 .70710678 55.86 152.96)"/><path d="m218.17 2.22h.43v13.65h-.43z" transform="matrix(.70698336 -.70723018 .70723018 .70698336 57.61 157.11)"/><path d="m224.03 2.33h.43v13.51h-.43z" transform="matrix(.70710678 -.70710678 .70710678 .70710678 59.25 161.23)"/><path d="m229.86 2.39h.43v13.44h-.43z" transform="matrix(.70723018 -.70698336 .70698336 .70723018 60.92 165.33)"/><path d="m235.65 2.36h.43v13.48h-.43z" transform="matrix(.70698336 -.70723018 .70723018 .70698336 62.68 169.48)"/><path d="m257.37.96h.43v24.9h-.43z" transform="matrix(.70710678 -.70710678 .70710678 .70710678 65.96 186.06)"/><path d="m264.85 3.81h.43v22.54h-.43z" transform="matrix(.70710678 -.70710678 .70710678 .70710678 66.97 191.85)"/><path d="m275.37 13.83h.43v11.94h-.43z" transform="matrix(.70710678 -.70710678 .70710678 .70710678 66.72 200.67)"/><path d="m252.54 20.28-1.65-1.65.3-.31 1.65 1.66z"/><path d="m241.49 2.45h.43v13.39h-.43z" transform="matrix(.70723018 -.70698336 .70698336 .70723018 64.31 173.57)"/><path d="m254.99 10.84h.43v11.99h-.43z" transform="matrix(.70735356 -.70685991 .70685991 .70735356 62.79 185.33)"/><path d="m246.21 2.97h.43v10.17h-.43z" transform="matrix(.70735356 -.70685991 .70685991 .70735356 66.42 176.54)"/><path d="m290.11 15.38h.43v15.12h-.43z" transform="matrix(.70710678 -.70710678 .70710678 .70710678 68.82 212.01)"/><path d="m293.95 17.66h.43v6.6h-.43z" transform="matrix(.70685991 -.70735356 .70735356 .70685991 71.39 214.21)"/><path d="m289.28 27.36h.43v1.11h-.43z" transform="matrix(.70772358 -.70648944 .70648944 .70772358 64.91 212.7)"/><path d="m282.27 14.89h.43v12h-.43z" transform="matrix(.70747692 -.70673644 .70673644 .70747692 67.88 205.77)"/><path d="m250.57 135.26v-9.45h1.43v-2.32l4.1 2.32h4.19v-2.38l4.09 2.38h4.2v-2.27l4.08 2.28h4.07v-2.39l4.16 2.39h4.11v-2.33l4.26 2.37v3.59h-.19zm.46-9v8.48l37.81-5.68v-2.93l-3.36-1.87v2h-4.68-.05l-3.54-2v2.06h-4.64-.05l-3.46-1.93v2h-4.77-.05l-3.47-2v2.05h-4.77l-3.54-2v2z"/><path d="m260.32 31.34v-2.34h-4.19l-4.13 2.28v-2.28h-1.46v-9.49h.26l38.46 5.56v3.83l-.11.07-4.15 2.31v-2.28h-4.11l-4.16 2.38v-2.38h-4.07l-4.08 2.27v-2.27h-4.2zm12.25-2.84h4.64v2.06l3.59-2.06h4.68v2l3.36-1.87v-3.13l-37.84-5.5v8.5h1.45v2l3.54-2h4.75v2.05l3.52-2.05h4.77v2z"/><path d="m285.85 128.11h3.77v.43h-3.77z" transform="matrix(.70710678 -.70710678 .70710678 .70710678 -6.47 241.04)"/><path d="m271.39 128.21h9.25v.43h-9.25z" transform="matrix(.70710678 -.70710678 .70710678 .70710678 -9.97 232.79)"/><path d="m264.53 129.17h9.44v.43h-9.44z" transform="matrix(.70710678 -.70710678 .70710678 .70710678 -12.63 228.28)"/><path d="m257.5 129.68h10.88v.43h-10.88z" transform="matrix(.70710678 -.70710678 .70710678 .70710678 -14.84 223.97)"/><path d="m250.18 129.58h14.09v.43h-14.09z" transform="matrix(.70710678 -.70710678 .70710678 .70710678 -16.44 219.91)"/><path d="m249.79 127.87h6.7v.43h-6.7z" transform="matrix(.70710678 -.70710678 .70710678 .70710678 -16.42 216.51)"/><path d="m285.11 124.42h1v.43h-1z" transform="matrix(.71006249 -.70413866 .70413866 .71006249 -4.94 237.26)"/><path d="m278.61 128.15h6.54v.43h-6.54z" transform="matrix(.70710678 -.70710678 .70710678 .70710678 -8.21 236.91)"/><path d="m284.49 28.64h5.35v.43h-5.35z" transform="matrix(.70710678 -.70710678 .70710678 .70710678 63.71 211.51)"/><path d="m274.72 26.18h6.6v.43h-6.6z" transform="matrix(.70710678 -.70710678 .70710678 .70710678 62.77 204.32)"/><path d="m267.52 26.33h9.09v.43h-9.09z" transform="matrix(.70710678 -.70710678 .70710678 .70710678 60.92 200.15)"/><path d="m262.32 25.64h9.26v.43h-9.26z" transform="matrix(.70710678 -.70710678 .70710678 .70710678 59.91 196.33)"/><path d="m256.86 25.07h9.71v.43h-9.71z" transform="matrix(.70710678 -.70710678 .70710678 .70710678 58.78 192.47)"/><path d="m250.64 24.81h11.05v.43h-11.05z" transform="matrix(.70710678 -.70710678 .70710678 .70710678 57.33 188.47)"/><path d="m280.68 26.52h5.59v.43h-5.59z" transform="matrix(.70710678 -.70710678 .70710678 .70710678 64.12 208.28)"/><path d="m250.57 25.57h.45v100.52h-.45z"/><path d="m249.9 22.3h6.02v.43h-6.02z" transform="matrix(.70710678 -.70710678 .70710678 .70710678 58.15 185.43)"/><path d="m252.02 30.89h.45v93.03h-.45z"/><path d="m255.86 28.73h.45v97.28h-.45z"/><path d="m260.31 30.93h.45v92.95h-.45z"/><path d="m264.13 28.73h.45v97.28h-.45z"/><path d="m268.6 30.84h.45v93.11h-.45z"/><path d="m272.43 28.73h.45v97.28h-.45z"/><path d="m276.76 30.93h.45v93.03h-.45z"/><path d="m280.66 28.73h.45v97.28h-.45z"/><path d="m285.03 30.93h.45v93.03h-.45z"/><path d="m288.84 28.73h.45v97.28h-.45z"/><path d="m11.97 114.24h1.16v25.1h-1.16z" transform="matrix(.00122173 -.99999925 .99999925 .00122173 -114.25 139.17)"/><path d="m0 28.08h25.61v1.16h-25.61z" transform="matrix(.99999781 -.00209439 .00209439 .99999781 -.06 .03)"/><path d="m8.12 28.34 1.47 3.65 1.46 3.66h-2.93-2.94l1.47-3.66z" fill-rule="evenodd"/><path d="m8.12 126.93-1.46-3.65-1.47-3.65h2.93 2.94l-1.47 3.65z" fill-rule="evenodd"/><path d="m7.65 31.47h1.07v36.87h-1.07z"/><path d="m8.72 124.46h-1.07v-32.89c0-3.61 0-5.25.09-6a.17.17 0 0 1 0-.07c.08-.5.26-.5.45-.5l.54.54v.08c0 1.97-.01 38.84-.01 38.84z"/><path d="m10.42 81.79h-1.24v-1a2.45 2.45 0 0 1 -2.18 1.21 3.08 3.08 0 0 1 -1.75-.53 3.38 3.38 0 0 1 -1.25-1.47 4.87 4.87 0 0 1 -.44-2.14 4 4 0 0 1 1.57-3.62 3.21 3.21 0 0 1 1.77-.51 2.55 2.55 0 0 1 2.2 1.08v-3.91h1.32zm-5.42-3.94a4 4 0 0 0 .46 2 1.84 1.84 0 0 0 1.69 1 1.78 1.78 0 0 0 1.65-1 3.83 3.83 0 0 0 .46-2 4.42 4.42 0 0 0 -.44-2.08 1.85 1.85 0 0 0 -1.73-1 1.76 1.76 0 0 0 -1.67 1 4.22 4.22 0 0 0 -.42 2" fill-rule="evenodd"/><path d="m302.71 78.05h-51.35v-1.05h51.35zm-64.17 0h-12.83v-1.05h12.83zm-25.66 0h-77v-1.05h77zm-89.8 0h-12.83v-1.05h12.83zm-25.66 0h-77v-1.05h77z"/><path d="m310.05 114.18h1.16v25.1h-1.16z" transform="matrix(.00122173 -.99999925 .99999925 .00122173 183.49 437.2)"/><path d="m298.08 28.03h25.61v1.16h-25.61z" transform="matrix(.99999781 -.00209439 .00209439 .99999781 -.06 .67)"/><path d="m315.28 28.29 1.47 3.65 1.46 3.65h-2.93-2.94l1.47-3.65z" fill-rule="evenodd"/><path d="m315.29 126.88-1.47-3.65-1.47-3.66h2.94 2.93l-1.47 3.66z" fill-rule="evenodd"/><path d="m314.81 31.42h1.07v36.86h-1.07z"/><path d="m315.88 124.4h-1.08v-32.88c0-3.61 0-5.25.09-6a.15.15 0 0 1 0-.07h-.1.1c.07-.53.2-.53.43-.53l.53.53v.09z"/><path d="m317.58 81.74h-1.24v-1a2.45 2.45 0 0 1 -2.21 1.18 3.06 3.06 0 0 1 -1.75-.53 3.45 3.45 0 0 1 -1.2-1.44 4.89 4.89 0 0 1 -.44-2.15 4 4 0 0 1 1.58-3.61 3.16 3.16 0 0 1 1.76-.52 2.55 2.55 0 0 1 2.18 1.09v-3.91h1.32zm-5.47-3.94a4 4 0 0 0 .47 2 1.91 1.91 0 0 0 3.33 0 3.73 3.73 0 0 0 .45-2 4.4 4.4 0 0 0 -.43-2.08 1.85 1.85 0 0 0 -1.73-1 1.77 1.77 0 0 0 -1.67 1 4.22 4.22 0 0 0 -.42 2" fill-rule="evenodd"/></g></svg>