<?xml version="1.0" standalone="no"?>
<!DOCTYPE svg PUBLIC "-//W3C//DTD SVG 20010904//EN"
 "http://www.w3.org/TR/2001/REC-SVG-20010904/DTD/svg10.dtd">
<svg version="1.0" xmlns="http://www.w3.org/2000/svg"
 width="1280.000000pt" height="1280.000000pt" viewBox="0 0 1280.000000 1280.000000"
 preserveAspectRatio="xMidYMid meet">
<metadata>
Created by potrace 1.11, written by Peter Selinger 2001-2013
</metadata>
<g transform="translate(0.000000,1280.000000) scale(0.100000,-0.100000)"
fill="#000000" stroke="none">
<path d="M6369 12758 c-13 -18 -26 -35 -29 -38 -3 -3 -9 -12 -15 -22 -20 -33
-344 -474 -365 -495 -11 -13 -18 -23 -15 -23 4 0 -37 -58 -86 -120 -11 -14
-34 -46 -51 -72 -17 -27 -35 -48 -40 -48 -4 0 -8 -5 -8 -10 0 -6 -4 -16 -10
-23 -46 -57 -60 -76 -60 -85 0 -6 -4 -12 -8 -14 -8 -3 -255 -346 -304 -423 -7
-10 -17 -24 -23 -31 -5 -6 -17 -22 -25 -34 -8 -12 -26 -37 -40 -55 -14 -18
-32 -43 -40 -55 -8 -12 -19 -28 -25 -34 -5 -6 -26 -34 -44 -61 -19 -28 -37
-52 -40 -55 -4 -3 -10 -12 -16 -22 -15 -25 -226 -317 -239 -331 -6 -7 -29 -39
-51 -71 -22 -33 -44 -64 -50 -71 -5 -6 -14 -18 -20 -28 -9 -15 -220 -310 -238
-332 -11 -14 -79 -108 -97 -135 -8 -12 -31 -44 -50 -70 -19 -26 -42 -58 -50
-70 -8 -12 -20 -28 -25 -34 -24 -26 -85 -117 -85 -126 0 -5 -6 -13 -13 -17 -7
-4 -24 -24 -37 -43 -13 -19 -29 -38 -35 -42 -6 -5 -6 -8 0 -8 7 0 7 -3 0 -8
-6 -4 -30 -34 -55 -67 -25 -33 -48 -61 -52 -63 -5 -2 -8 -10 -8 -17 0 -7 -3
-15 -7 -17 -5 -1 -30 -32 -58 -68 -27 -36 -54 -68 -60 -72 -6 -5 -6 -8 0 -8 6
0 6 -3 0 -8 -9 -6 -43 -51 -193 -257 -23 -33 -48 -67 -55 -76 -7 -8 -16 -23
-22 -31 -45 -71 -80 -118 -87 -118 -4 0 -8 -5 -8 -10 0 -9 -210 -314 -239
-347 -6 -7 -11 -17 -11 -23 0 -5 -4 -10 -10 -10 -5 0 -10 -7 -10 -15 0 -8 -3
-15 -7 -15 -5 0 -24 -25 -43 -55 -19 -30 -38 -55 -42 -55 -5 0 -8 -5 -8 -11 0
-6 -13 -28 -30 -49 -16 -21 -30 -42 -30 -48 0 -6 -4 -12 -8 -14 -5 -1 -23 -25
-42 -53 -19 -27 -38 -54 -43 -60 -4 -5 -29 -39 -55 -75 -26 -36 -53 -72 -60
-80 -6 -8 -38 -51 -69 -95 -32 -44 -62 -85 -68 -91 -5 -6 -28 -37 -50 -69 -22
-31 -52 -72 -67 -90 -16 -18 -28 -38 -28 -44 0 -6 -4 -11 -9 -11 -5 0 -17 -13
-28 -29 -29 -45 -117 -175 -123 -181 -3 -3 -10 -14 -17 -25 -7 -11 -28 -46
-47 -78 -20 -32 -36 -63 -36 -68 0 -5 -4 -9 -9 -9 -5 0 -14 -15 -22 -32 -7
-18 -16 -35 -21 -38 -13 -10 -191 -369 -233 -470 -21 -52 -42 -99 -45 -105 -4
-5 -13 -28 -20 -50 -7 -22 -18 -53 -26 -70 -7 -16 -31 -86 -54 -155 -51 -159
-56 -175 -71 -230 -15 -55 -13 -45 -34 -135 -6 -26 -53 -241 -61 -280 -4 -16
-8 -43 -9 -60 -2 -16 -5 -37 -9 -45 -3 -8 -8 -35 -11 -60 -3 -25 -7 -54 -9
-65 -3 -17 -9 -71 -22 -180 -13 -108 -18 -232 -18 -465 0 -241 4 -326 19 -475
5 -51 16 -182 18 -222 0 -13 4 -23 7 -23 4 0 7 -6 7 -12 0 -7 6 -47 13 -88 12
-75 16 -94 24 -127 3 -10 18 -78 35 -152 17 -74 37 -141 44 -150 10 -12 9 -13
-3 -6 -12 7 -13 6 -4 -6 6 -8 16 -34 24 -59 59 -204 217 -613 245 -632 5 -4 6
-8 2 -8 -4 0 18 -51 50 -112 31 -62 56 -115 54 -117 -1 -2 1 -7 6 -10 5 -3 27
-37 48 -76 52 -93 52 -91 114 -192 30 -49 57 -90 61 -93 3 -3 26 -36 49 -75
24 -38 47 -72 50 -75 4 -3 24 -29 45 -59 21 -30 42 -59 47 -65 5 -6 34 -42 65
-81 120 -151 202 -242 350 -389 130 -130 213 -206 225 -206 5 0 9 -4 9 -8 0
-5 27 -30 61 -58 34 -27 68 -56 77 -64 10 -9 40 -33 67 -54 28 -22 56 -46 63
-55 6 -8 12 -12 12 -8 0 8 14 -2 51 -35 10 -10 21 -18 23 -18 3 0 40 -24 83
-54 43 -29 92 -61 108 -70 17 -9 57 -33 90 -52 33 -19 68 -38 78 -41 9 -3 17
-10 17 -15 0 -5 5 -6 10 -3 6 3 10 2 10 -2 0 -5 20 -17 45 -28 25 -11 45 -23
45 -26 0 -8 338 -176 390 -194 14 -5 49 -19 85 -35 41 -18 76 -32 85 -34 3 -1
15 -7 28 -14 12 -7 22 -10 22 -6 0 3 7 1 15 -6 8 -7 15 -10 15 -6 0 4 13 0 29
-8 16 -9 31 -12 35 -9 3 4 6 2 6 -4 0 -5 6 -10 13 -10 16 0 146 -41 173 -55
12 -5 33 -11 48 -11 14 -1 26 -6 26 -11 0 -4 7 -6 15 -3 8 4 17 2 19 -2 5 -7
30 -15 86 -26 8 -2 44 -11 80 -20 36 -9 74 -18 85 -20 11 -2 56 -11 100 -20
44 -9 94 -18 110 -20 17 -2 30 -4 30 -5 0 -3 40 -9 195 -27 45 -5 124 -11 220
-17 41 -2 111 -8 155 -12 207 -19 676 3 900 42 17 3 44 7 60 9 29 4 52 8 113
21 15 3 38 7 52 9 23 3 82 15 135 28 69 17 164 39 184 43 14 3 28 7 33 10 5 3
20 7 33 10 14 2 105 31 203 64 97 33 182 62 187 64 15 5 67 25 90 35 100 44
147 64 155 65 3 1 11 5 19 10 8 5 32 14 55 21 27 8 42 18 44 31 2 13 36 36
110 73 59 30 109 57 112 60 3 3 34 21 70 40 36 18 90 50 120 69 30 20 58 36
61 37 3 0 13 8 23 18 10 9 24 17 32 17 8 0 14 4 14 9 0 5 14 14 30 21 17 7 30
16 30 20 0 4 10 11 23 17 27 13 278 199 293 219 6 8 14 14 18 14 4 0 20 14 36
30 17 17 30 28 30 25 0 -10 95 79 275 260 168 168 218 222 312 340 27 33 56
69 65 80 32 37 123 151 148 184 14 18 30 38 36 44 17 20 128 177 139 198 5 10
13 19 18 19 4 0 5 5 2 10 -3 6 -2 10 4 10 6 0 20 17 31 38 11 20 38 66 60 101
22 34 40 67 40 72 0 5 3 9 8 9 7 0 34 53 38 75 1 6 17 42 35 80 18 39 34 72
34 75 0 3 9 20 18 37 10 18 17 35 17 38 0 3 11 30 25 61 14 31 25 59 25 61 0
3 6 19 14 36 26 62 46 112 48 127 2 8 5 17 8 20 3 3 18 46 34 95 16 50 31 97
34 105 3 8 4 18 4 23 -1 4 2 7 6 7 4 0 8 8 9 18 0 9 13 62 28 117 15 55 28
107 30 115 2 8 9 38 15 65 6 28 14 59 16 70 5 23 21 105 38 195 3 14 8 45 11
70 3 25 8 59 11 75 3 17 8 46 11 65 7 50 12 1043 5 1055 -3 5 -7 30 -9 55 -3
52 -10 123 -13 130 -1 3 -2 8 -1 12 0 4 -4 30 -9 57 -5 28 -12 72 -16 98 -3
26 -8 51 -10 54 -2 4 -6 22 -9 42 -3 19 -22 97 -41 173 -20 77 -37 146 -38
154 -2 8 -6 22 -8 30 -33 92 -102 317 -100 323 1 4 -2 7 -8 7 -5 0 -10 7 -10
15 0 9 -7 32 -17 53 -9 20 -17 39 -18 42 -21 70 -30 90 -37 90 -4 0 -8 6 -8
14 0 7 -17 49 -37 92 -20 44 -37 81 -37 84 -2 11 -140 277 -162 312 -13 21
-24 40 -24 42 0 10 -173 281 -181 284 -5 2 -9 8 -9 14 0 9 -11 25 -60 84 -5 7
-6 15 -3 18 4 3 2 6 -4 6 -6 0 -22 18 -37 40 -15 22 -33 48 -41 58 -8 9 -43
56 -77 104 -210 289 -356 489 -387 529 -20 26 -43 57 -51 69 -8 12 -36 50 -61
84 -69 93 -129 184 -129 195 0 6 -4 11 -10 11 -5 0 -10 4 -10 9 0 9 -99 162
-110 171 -4 3 -15 20 -25 38 -11 17 -23 32 -27 32 -4 0 -8 5 -8 10 0 6 -5 16
-10 23 -6 7 -32 41 -58 77 -26 36 -50 67 -54 68 -5 2 -8 8 -8 13 0 5 -22 39
-50 74 -27 35 -50 69 -50 75 0 5 -4 10 -10 10 -5 0 -10 7 -10 15 0 8 -4 15 -9
15 -5 0 -12 9 -16 20 -6 20 -72 113 -99 141 -9 9 -16 21 -16 27 0 5 -4 12 -8
14 -4 2 -37 41 -72 88 -36 46 -70 91 -77 100 -31 39 -100 130 -113 150 -8 12
-26 37 -40 55 -14 18 -32 43 -40 55 -8 12 -48 67 -89 123 -40 56 -84 119 -97
140 -14 20 -31 45 -39 55 -14 17 -177 241 -205 282 -8 13 -21 28 -27 36 -7 7
-13 17 -13 23 0 6 -4 11 -8 11 -4 0 -16 13 -25 30 -10 16 -23 35 -30 42 -7 7
-32 42 -57 78 -24 36 -50 71 -57 78 -7 7 -20 26 -30 42 -9 17 -21 30 -25 30
-4 0 -8 5 -8 11 0 5 -27 46 -60 89 -33 43 -60 82 -60 85 0 4 -6 12 -12 19 -7
7 -21 24 -31 37 -9 13 -63 88 -120 165 -172 238 -210 288 -219 292 -5 2 -8 10
-8 18 0 8 -7 17 -15 20 -8 4 -15 11 -15 16 0 6 -18 32 -40 58 -22 26 -40 52
-40 58 0 6 -3 12 -8 14 -13 5 -72 85 -72 97 0 6 -4 11 -8 11 -5 0 -33 35 -62
78 -30 42 -58 79 -62 80 -4 2 -8 8 -8 13 0 7 -100 151 -130 186 -5 7 -10 16
-10 22 0 5 -3 11 -7 13 -11 5 -113 147 -113 157 0 5 -4 11 -8 13 -4 2 -28 32
-52 68 -25 36 -48 67 -51 70 -3 3 -27 36 -53 73 -113 164 -139 197 -150 197
-2 0 -15 -15 -27 -32z m81 -4265 c0 -4 10 -20 23 -35 37 -44 51 -62 87 -113
19 -28 38 -51 42 -53 4 -2 8 -10 8 -18 0 -8 3 -14 8 -14 4 0 22 -21 40 -47 38
-57 98 -140 129 -179 13 -16 55 -74 95 -129 40 -55 76 -101 80 -103 5 -2 8 -8
8 -13 0 -5 7 -17 15 -26 38 -47 115 -155 115 -163 0 -4 4 -10 8 -12 4 -1 71
-91 147 -198 149 -209 250 -349 262 -365 5 -5 19 -26 33 -45 13 -19 27 -37 30
-40 4 -3 22 -27 40 -55 19 -27 37 -51 42 -53 4 -2 8 -10 8 -18 0 -8 7 -17 15
-20 8 -4 15 -10 15 -15 0 -8 45 -71 85 -121 8 -9 22 -29 32 -45 26 -41 77
-108 86 -111 4 -2 7 -8 7 -13 0 -6 5 -15 10 -22 6 -7 33 -43 60 -82 27 -38 53
-74 57 -80 5 -5 46 -64 93 -130 46 -66 87 -122 91 -125 3 -3 19 -25 34 -50 15
-25 33 -48 39 -52 6 -5 7 -8 1 -8 -6 0 -6 -3 0 -8 23 -16 135 -227 186 -349 5
-13 14 -33 20 -46 5 -13 11 -29 13 -37 2 -8 6 -22 9 -30 28 -71 82 -275 91
-345 3 -22 8 -55 11 -74 4 -19 8 -63 8 -98 1 -35 4 -63 7 -63 4 0 4 -327 -1
-380 0 -8 -8 -55 -16 -105 -9 -49 -17 -99 -18 -110 -2 -11 -4 -20 -5 -20 -2 0
-5 -15 -13 -57 -3 -15 -9 -33 -12 -38 -4 -6 -9 -25 -12 -43 -3 -17 -13 -52
-24 -79 -10 -26 -16 -48 -13 -48 4 0 0 -10 -8 -22 -8 -13 -22 -45 -33 -73 -19
-53 -113 -247 -124 -255 -3 -3 -15 -21 -25 -40 -90 -165 -275 -385 -457 -545
-154 -136 -405 -288 -589 -359 -41 -16 -88 -34 -105 -41 -42 -18 -107 -39
-125 -40 -8 -1 -42 -14 -75 -29 -100 -47 -125 -52 -235 -45 -8 1 -28 -1 -45
-5 -140 -28 -491 -23 -658 10 -12 2 -39 6 -62 9 -22 4 -56 10 -75 15 -19 5
-46 11 -60 14 -59 13 -116 31 -122 41 -4 5 -8 7 -8 3 0 -8 -115 31 -189 65
-25 11 -48 21 -51 23 -3 1 -15 5 -27 9 -13 4 -23 11 -23 16 0 5 -3 8 -7 7 -14
-4 -53 13 -53 23 0 5 -9 9 -20 9 -11 0 -20 4 -20 10 0 5 -3 9 -7 8 -5 -1 -27
10 -50 25 -24 15 -45 27 -47 27 -16 0 -195 130 -324 235 -69 56 -221 226 -304
338 -20 29 -41 57 -45 62 -17 22 -122 202 -135 230 -7 17 -15 32 -18 35 -7 7
-48 102 -82 195 -17 44 -35 89 -40 100 -5 12 -10 27 -12 35 -8 48 -20 87 -28
98 -6 6 -8 12 -5 12 3 0 1 16 -5 36 -10 39 -16 64 -22 104 -3 14 -8 45 -12 70
-4 25 -8 56 -9 70 0 14 -3 30 -7 35 -5 9 -4 410 1 410 2 0 4 16 5 35 12 140
52 322 108 485 16 50 38 108 48 130 25 54 33 79 32 88 -1 4 2 7 6 7 5 0 19 24
32 52 33 72 123 219 205 333 20 28 46 65 57 83 11 17 24 32 29 32 5 0 9 5 9
11 0 6 10 24 23 39 12 15 28 36 35 46 23 35 113 160 191 266 28 38 55 77 61
87 5 11 16 25 23 33 7 7 28 36 47 63 19 28 40 56 47 63 7 7 13 17 13 21 0 4 8
16 18 27 10 10 28 35 42 54 13 19 101 139 195 265 262 353 285 384 285 395 0
5 3 10 8 10 4 1 23 24 42 51 19 28 52 73 73 100 20 26 37 53 37 58 0 5 4 11 8
13 4 2 33 39 64 83 32 44 61 85 65 90 5 6 31 42 58 80 42 60 60 85 103 140 4
6 23 33 42 60 19 28 37 52 42 53 4 2 8 8 8 12 0 5 21 37 48 72 26 35 64 87 85
117 l39 53 19 -21 c10 -11 19 -24 19 -28z"/>
<path d="M6339 6443 c-30 -41 -61 -85 -69 -97 -24 -34 -161 -222 -207 -285
-24 -31 -46 -63 -50 -71 -4 -8 -12 -20 -17 -26 -6 -6 -18 -22 -26 -34 -8 -12
-25 -34 -38 -48 -12 -15 -25 -35 -28 -44 -3 -10 -9 -18 -14 -18 -5 0 -11 -8
-14 -18 -4 -10 -14 -27 -24 -38 -10 -11 -27 -33 -37 -49 -11 -17 -25 -37 -33
-45 -16 -18 -172 -235 -244 -340 -28 -41 -55 -77 -60 -78 -4 -2 -6 -7 -3 -12
3 -4 -2 -13 -10 -20 -8 -7 -15 -16 -15 -21 0 -4 -13 -36 -29 -71 -27 -57 -65
-178 -78 -247 -8 -40 -13 -313 -6 -324 3 -6 8 -24 9 -41 15 -134 104 -340 204
-470 45 -59 182 -188 237 -223 15 -9 30 -20 33 -23 3 -3 16 -11 29 -18 13 -8
38 -22 56 -32 18 -10 36 -16 39 -13 3 4 6 0 6 -7 0 -7 3 -10 7 -7 3 4 11 3 17
-2 25 -20 173 -63 276 -80 69 -12 278 -7 345 8 28 6 61 14 75 17 38 8 143 44
165 56 11 7 45 24 75 40 62 32 88 47 108 66 7 6 17 12 22 12 11 0 197 187 226
226 36 51 102 169 109 197 4 15 11 29 15 32 9 6 46 120 55 170 3 17 9 48 13
70 9 52 9 290 0 335 -4 19 -11 49 -14 65 -4 17 -7 36 -7 43 0 6 -4 12 -9 12
-5 0 -7 4 -3 10 3 5 1 17 -4 27 -5 10 -20 45 -32 78 -30 79 -76 157 -168 285
-42 58 -78 107 -81 110 -3 3 -13 16 -22 30 -22 33 -66 93 -168 234 -47 65 -89
125 -95 134 -5 9 -12 19 -15 22 -3 3 -30 39 -60 80 -30 41 -57 77 -60 80 -3 3
-9 12 -15 21 -15 24 -96 139 -111 158 -42 52 -84 113 -84 121 0 6 -3 10 -8 10
-4 0 -18 18 -32 40 -14 22 -28 40 -32 40 -4 0 -9 9 -13 19 -12 40 -33 29 -86
-46z"/>
</g>
</svg>
